<svg width="16" height="16" viewBox="0 0 16 16" fill="none" xmlns="http://www.w3.org/2000/svg">
<g clip-path="url(#clip0_7_796)">
<path d="M-0.5 4C-0.5 3.46957 -0.289286 2.96086 0.0857865 2.58579C0.460859 2.21071 0.969567 2 1.5 2H13.5C14.0304 2 14.5391 2.21071 14.9142 2.58579C15.2893 2.96086 15.5 3.46957 15.5 4V12C15.5 12.5304 15.2893 13.0391 14.9142 13.4142C14.5391 13.7893 14.0304 14 13.5 14H1.5C0.969567 14 0.460859 13.7893 0.0857865 13.4142C-0.289286 13.0391 -0.5 12.5304 -0.5 12V4ZM1.5 3C1.23478 3 0.98043 3.10536 0.792893 3.29289C0.605357 3.48043 0.5 3.73478 0.5 4V4.217L7.5 8.417L14.5 4.217V4C14.5 3.73478 14.3946 3.48043 14.2071 3.29289C14.0196 3.10536 13.7652 3 13.5 3H1.5ZM14.5 5.383L9.742 8.238L14.5 11.114V5.384V5.383ZM14.466 12.261L8.771 8.82L7.5 9.583L6.228 8.82L0.534 12.26C0.591198 12.4724 0.716848 12.6601 0.891488 12.7938C1.06613 12.9276 1.28001 13.0001 1.5 13H13.5C13.7199 13.0001 13.9336 12.9278 14.1083 12.7942C14.2829 12.6607 14.4086 12.4732 14.466 12.261ZM0.5 11.114L5.258 8.238L0.5 5.383V11.113V11.114Z" fill="white"/>
</g>
<defs>
<clipPath id="clip0_7_796">
<rect width="16" height="16" fill="white"/>
</clipPath>
</defs>
</svg>
