<svg width="16" height="16" viewBox="0 0 16 16" fill="none" xmlns="http://www.w3.org/2000/svg">
<path d="M11.7426 10.3439C12.7109 9.02254 13.1446 7.38435 12.9569 5.75701C12.7692 4.12966 11.974 2.63319 10.7304 1.56699C9.48671 0.500777 7.88634 -0.0565401 6.24943 0.00653307C4.61252 0.0696062 3.05978 0.748418 1.90186 1.90716C0.743944 3.06591 0.0662432 4.61913 0.00434136 6.25609C-0.0575605 7.89305 0.500902 9.49302 1.568 10.7359C2.6351 11.9788 4.13214 12.7729 5.75961 12.9594C7.38709 13.146 9.02497 12.7111 10.3456 11.7419H10.3446C10.3746 11.7819 10.4066 11.8199 10.4426 11.8569L14.2926 15.7069C14.4801 15.8945 14.7345 16 14.9997 16.0001C15.265 16.0002 15.5195 15.8949 15.7071 15.7074C15.8947 15.5198 16.0002 15.2655 16.0003 15.0002C16.0004 14.7349 15.8951 14.4805 15.7076 14.2929L11.8576 10.4429C11.8218 10.4067 11.7834 10.3732 11.7426 10.3429V10.3439ZM12.0006 6.49986C12.0006 7.22213 11.8583 7.93732 11.5819 8.60462C11.3055 9.27191 10.9004 9.87822 10.3897 10.3889C9.87896 10.8997 9.27264 11.3048 8.60535 11.5812C7.93806 11.8576 7.22286 11.9999 6.50059 11.9999C5.77832 11.9999 5.06312 11.8576 4.39583 11.5812C3.72854 11.3048 3.12223 10.8997 2.61151 10.3889C2.10078 9.87822 1.69566 9.27191 1.41926 8.60462C1.14285 7.93732 1.00059 7.22213 1.00059 6.49986C1.00059 5.04117 1.58006 3.64222 2.61151 2.61077C3.64296 1.57932 5.0419 0.999856 6.50059 0.999856C7.95928 0.999856 9.35823 1.57932 10.3897 2.61077C11.4211 3.64222 12.0006 5.04117 12.0006 6.49986Z" fill="#23A6F0"/>
</svg>
