<svg width="20" height="18" viewBox="0 0 20 18" fill="none" xmlns="http://www.w3.org/2000/svg">
<path d="M19.2899 2.27995C19.2899 0.779952 15.1898 -0.420044 10.0898 -0.420044C4.98989 -0.420044 0.889893 0.779952 0.889893 2.27995C0.889893 2.57995 0.989893 2.77995 1.28989 3.07995C1.28989 3.17995 1.28989 3.17995 1.38989 3.27995L7.68989 10.7799C7.88989 10.9799 7.98989 11.3799 7.98989 11.6799V18.4799C7.98989 18.7799 8.18989 18.8799 8.48989 18.7799L11.7898 17.2799C12.0898 17.1799 12.2898 16.7799 12.2898 16.5799V11.7799C12.2898 11.4799 12.3898 11.0799 12.5898 10.8799L18.8898 3.37995C18.8898 3.17995 18.8898 3.17995 18.9898 3.07995C19.1898 2.77995 19.2899 2.57995 19.2899 2.27995ZM10.0898 0.679952C15.0898 0.679952 17.7899 1.77995 18.1898 2.37995C17.7899 2.87995 15.0898 3.97995 10.0898 3.97995C5.08989 3.97995 2.38989 2.87995 1.98989 2.27995C2.38989 1.77995 5.08989 0.679952 10.0898 0.679952Z" fill="#323232"/>
</svg>
