<svg width="16" height="16" viewBox="0 0 16 16" fill="none" xmlns="http://www.w3.org/2000/svg">
<path fill-rule="evenodd" clip-rule="evenodd" d="M12.9603 3.03441C12.3131 2.38693 11.5443 1.87385 10.698 1.5247C9.85178 1.17556 8.94482 0.997248 8.02938 1.00003C4.1875 1.00003 1.06 4.11191 1.05844 7.93753C1.05674 9.15569 1.37784 10.3526 1.98906 11.4063L1 15L4.69531 14.0353C5.71819 14.5895 6.86323 14.8795 8.02656 14.8791H8.02938C11.8709 14.8791 14.9981 11.7669 15 7.94159C15.0023 7.02927 14.8232 6.12559 14.473 5.28314C14.1229 4.44069 13.6086 3.67628 12.9603 3.03441ZM8.02938 13.7082H8.02687C6.98981 13.7085 5.97159 13.4309 5.07812 12.9044L4.86656 12.7794L2.67375 13.3519L3.25906 11.2241L3.12125 11.0053C2.54137 10.0873 2.23414 9.0234 2.23531 7.93753C2.23531 4.75847 4.83563 2.17191 8.03156 2.17191C9.56468 2.16917 11.0361 2.77551 12.1222 3.85757C13.2083 4.93963 13.8201 6.40879 13.8231 7.94191C13.8219 11.1213 11.2228 13.7082 8.02938 13.7082ZM11.2072 9.38972C11.0331 9.30285 10.1759 8.88347 10.0172 8.82566C9.85844 8.76784 9.74125 8.73878 9.62531 8.91253C9.50938 9.08628 9.17531 9.47503 9.07375 9.59222C8.97219 9.70941 8.87063 9.72222 8.69656 9.63534C8.5225 9.54847 7.96094 9.36566 7.29563 8.77503C6.77781 8.31534 6.42844 7.74784 6.32688 7.57441C6.22531 7.40097 6.31594 7.30691 6.40312 7.22066C6.48156 7.14284 6.57719 7.01816 6.66437 6.91691C6.75156 6.81566 6.78062 6.74316 6.83844 6.62753C6.89625 6.51191 6.8675 6.41066 6.82406 6.32409C6.78062 6.23753 6.43219 5.38409 6.28719 5.03691C6.14563 4.69878 6.00219 4.74472 5.89531 4.73941C5.79375 4.73441 5.67656 4.73316 5.56125 4.73316C5.4731 4.73545 5.38636 4.75589 5.30647 4.79321C5.22657 4.83052 5.15522 4.88391 5.09688 4.95003C4.93719 5.12378 4.48719 5.54378 4.48719 6.39628C4.48719 7.24878 5.11219 8.07378 5.19844 8.18941C5.28469 8.30503 6.42656 10.056 8.17375 10.8069C8.49819 10.9458 8.82968 11.0677 9.16687 11.1719C9.58406 11.3038 9.96375 11.2853 10.2638 11.2407C10.5984 11.191 11.295 10.8213 11.4397 10.4163C11.5844 10.0113 11.5847 9.66441 11.5413 9.59222C11.4978 9.52003 11.3816 9.47628 11.2072 9.38972Z" fill="white"/>
</svg>
